# xmcd
#
# Track frame offsets: 
#        150
#        10181
#        35516
#        56128
#        71759
#        107181
#        138068
#        151818
#        179605
#        200245
#        227774
#        260319
#        280603
#
# Disc length: 4007 seconds
#
# Revision: 0
# Processed by: cddbd v1.5.2PL0 Copyright (c) Steve Scherf et al.
# Submitted via: ExactAudioCopy v0.95b3
#
DISCID=b70fa50d
DTITLE=Judas Priest  - A Touch of Evil - Live (Japanese Edition)  FLAC
DYEAR=1900
DGENRE=
TTITLE0=Judas Rising
TTITLE1=Hellrider
TTITLE2=Between the Hammer and the Anvil
TTITLE3=Riding on the Wind
TTITLE4=Death
TTITLE5=Beyond the Realms of Death
TTITLE6=Dissident Aggressor
TTITLE7=A Touch of Evil
TTITLE8=Eat me Alive
TTITLE9=Prophecy
TTITLE10=Painkiller
TTITLE11=Worth Fighting for
TTITLE12=Deal with the Devil
EXTD=
EXTT0=
EXTT1=
EXTT2=
EXTT3=
EXTT4=
EXTT5=
EXTT6=
EXTT7=
EXTT8=
EXTT9=
EXTT10=
EXTT11=
EXTT12=
PLAYORDER=
